<svg width="1885" height="1084" viewBox="0 0 1885 1084" fill="none" xmlns="http://www.w3.org/2000/svg">
<path d="M481.733 791.649L384.151 834.277C359.877 844.881 331.545 834.714 319.553 811.095L294.213 761.189L143.111 419.566L123.717 357.997C115.948 333.334 128.266 306.816 152.123 296.843L397.473 194.286C422.481 183.832 451.264 195.208 462.368 219.935L528.414 367.008L541.807 412.206C548.098 433.436 567.604 448 589.747 448H598.976C626.59 448 648.976 425.614 648.976 398V371.965C648.976 368.669 649.302 365.38 649.949 362.148L670.586 259.084C676.012 231.985 702.394 214.428 729.486 219.885L745.026 223.015C748.277 223.67 751.584 224 754.9 224H824.631C827.812 224 830.987 223.696 834.111 223.093L850.085 220.008C878.243 214.571 905.196 233.883 909.1 262.295L913.168 291.906C916.904 319.09 941.85 338.185 969.067 334.693L992.529 331.682C1011.95 329.19 1031.04 338.265 1041.37 354.901L1064.42 392.022C1079.23 415.869 1110.76 422.858 1134.25 407.501L1149.2 397.73C1161.11 389.948 1175.77 387.605 1189.51 391.289L1346.05 433.257C1351.52 434.725 1357.3 434.695 1362.76 433.168C1385.25 426.88 1393.41 399.223 1377.93 381.734L1288.46 280.653C1269.24 258.946 1272.46 225.501 1295.45 207.85L1332.55 179.373C1352.27 164.236 1380.12 165.888 1397.92 183.25L1424.98 209.655C1453.16 237.154 1500.59 222.799 1508.8 184.289L1515.25 154.001C1520.49 129.411 1543.18 112.536 1568.23 114.588L1635.9 120.128C1666.93 122.668 1688.12 152.633 1680.17 182.729L1569.06 603.405C1566.08 614.705 1558.88 624.436 1548.96 630.605C1528.62 643.239 1521.45 669.405 1532.51 690.639L1565.94 754.859C1576.04 774.259 1572.36 797.97 1556.85 813.395L1519.07 850.973C1502.12 867.835 1475.61 870.337 1455.8 856.942L1399.25 818.694C1390 812.438 1383.29 803.083 1380.33 792.315L1374.98 772.841C1366.71 742.749 1327.27 735.641 1309.02 760.954C1302.88 769.47 1293.42 774.99 1282.99 776.149L1218.14 783.354C1199.09 785.471 1186.84 804.619 1192.9 822.808C1199.75 843.362 1183.31 864.209 1161.72 862.332L1056.3 853.165H978.883C962.581 853.165 948.349 842.123 944.298 826.332C940.247 810.542 926.015 799.5 909.713 799.5H744.41C735.571 799.5 726.89 801.843 719.251 806.291L703.077 815.709C695.438 820.157 686.757 822.5 677.918 822.5H636.212C626.554 822.5 617.102 819.703 609 814.446L579.828 795.522C571.726 790.265 562.274 787.468 552.616 787.468H501.748C494.86 787.468 488.045 788.891 481.733 791.649Z" fill="#DCE0E8" stroke="#DCE0E8" stroke-width="102"/>
<mask id="mask0_1_2" style="mask-type:alpha" maskUnits="userSpaceOnUse" x="641" y="209" width="296" height="296">
<path d="M752.039 443.042C690.581 461.479 690.581 412.312 665.997 406.167M838.081 479.917V432.348C838.542 426.487 837.75 420.595 835.758 415.063C833.766 409.532 830.619 404.488 826.526 400.267C865.122 395.965 905.685 381.337 905.685 314.225C905.682 297.064 899.08 280.561 887.247 268.131C892.851 253.117 892.454 236.521 886.141 221.792C886.141 221.792 871.637 217.49 838.081 239.983C809.908 232.348 780.211 232.348 752.039 239.983C718.483 217.49 703.979 221.792 703.979 221.792C697.665 236.521 697.269 253.117 702.872 268.131C690.951 280.653 684.343 297.305 684.435 314.594C684.435 381.215 724.997 395.842 763.593 400.635C759.549 404.814 756.43 409.798 754.44 415.262C752.449 420.725 751.631 426.547 752.039 432.348V479.917" stroke="#179299" stroke-width="12" stroke-linecap="round" stroke-linejoin="round"/>
</mask>
<g mask="url(#mask0_1_2)">
<path d="M189.099 564.099L202.238 1037.12H2035.18L1962.91 340.73L1476.76 -46.8813L31.4263 235.615L189.099 564.099Z" fill="url(#paint0_linear_1_2)"/>
<path d="M169.39 518.111L182.529 991.128H2015.47L1943.2 294.742L1457.05 -92.8691L11.7172 189.627L169.39 518.111Z" fill="url(#paint1_linear_1_2)"/>
<path d="M169.39 518.111L182.529 991.128H2015.47L1943.2 294.742L1457.05 -92.8691L11.7172 189.627L169.39 518.111Z" fill="url(#paint2_linear_1_2)"/>
</g>
<mask id="mask1_1_2" style="mask-type:alpha" maskUnits="userSpaceOnUse" x="528" y="623" width="292" height="292">
<path d="M556.362 753.578L620.135 761.855M727.423 775.781L791.195 784.058M716.597 774.376C713.524 798.053 691.838 814.757 668.16 811.683C644.483 808.61 627.779 786.924 630.853 763.246C633.926 739.569 655.612 722.865 679.29 725.939C702.967 729.012 719.671 750.698 716.597 774.376Z" stroke="#179299" stroke-width="12" stroke-linecap="round" stroke-linejoin="round"/>
</mask>
<g mask="url(#mask1_1_2)">
<path d="M189.099 564.099L202.238 1037.12H2035.18L1962.91 340.73L1476.76 -46.8813L31.4263 235.615L189.099 564.099Z" fill="url(#paint3_linear_1_2)"/>
<path d="M169.39 518.111L182.529 991.128H2015.47L1943.2 294.742L1457.05 -92.8691L11.7172 189.627L169.39 518.111Z" fill="url(#paint4_linear_1_2)"/>
<path d="M169.39 518.111L182.529 991.128H2015.47L1943.2 294.742L1457.05 -92.8691L11.7172 189.627L169.39 518.111Z" fill="url(#paint5_linear_1_2)"/>
</g>
<mask id="mask2_1_2" style="mask-type:alpha" maskUnits="userSpaceOnUse" x="943" y="642" width="231" height="231">
<path d="M1087.16 815C1087.16 830.878 1100.04 843.75 1115.91 843.75C1131.79 843.75 1144.66 830.878 1144.66 815C1144.66 799.122 1131.79 786.25 1115.91 786.25C1100.04 786.25 1087.16 799.122 1087.16 815ZM1087.16 815C1064.29 815 1042.35 805.913 1026.18 789.738C1010 773.563 1000.91 751.625 1000.91 728.75M1000.91 728.75C1016.79 728.75 1029.66 715.878 1029.66 700C1029.66 684.122 1016.79 671.25 1000.91 671.25C985.036 671.25 972.164 684.122 972.164 700C972.164 715.878 985.036 728.75 1000.91 728.75ZM1000.91 728.75V843.75" stroke="#179299" stroke-width="12" stroke-linecap="round" stroke-linejoin="round"/>
</mask>
<g mask="url(#mask2_1_2)">
<path d="M189.099 564.099L202.238 1037.12H2035.18L1962.91 340.73L1476.76 -46.8813L31.4263 235.615L189.099 564.099Z" fill="url(#paint6_linear_1_2)"/>
<path d="M169.39 518.111L182.529 991.128H2015.47L1943.2 294.742L1457.05 -92.8691L11.7172 189.627L169.39 518.111Z" fill="url(#paint7_linear_1_2)"/>
<path d="M169.39 518.111L182.529 991.128H2015.47L1943.2 294.742L1457.05 -92.8691L11.7172 189.627L169.39 518.111Z" fill="url(#paint8_linear_1_2)"/>
</g>
<mask id="mask3_1_2" style="mask-type:alpha" maskUnits="userSpaceOnUse" x="1351" y="642" width="237" height="238">
<path d="M1371.08 662.25L1513.66 696.812L1528.41 770.875L1479.25 820.25L1405.5 805.438L1371.08 662.25ZM1371.08 662.25L1445.68 737.162M1469.41 830.125L1538.25 761L1567.75 790.625L1498.91 859.75L1469.41 830.125ZM1479.25 751.125C1479.25 762.033 1470.44 770.875 1459.58 770.875C1448.72 770.875 1439.91 762.033 1439.91 751.125C1439.91 740.217 1448.72 731.375 1459.58 731.375C1470.44 731.375 1479.25 740.217 1479.25 751.125Z" stroke="#179299" stroke-width="12" stroke-linecap="round" stroke-linejoin="round"/>
</mask>
<g mask="url(#mask3_1_2)">
<path d="M189.099 564.099L202.238 1037.12H2035.18L1962.91 340.73L1476.76 -46.8813L31.4263 235.615L189.099 564.099Z" fill="url(#paint9_linear_1_2)"/>
<path d="M169.39 518.111L182.529 991.128H2015.47L1943.2 294.742L1457.05 -92.8691L11.7172 189.627L169.39 518.111Z" fill="url(#paint10_linear_1_2)"/>
<path d="M169.39 518.111L182.529 991.128H2015.47L1943.2 294.742L1457.05 -92.8691L11.7172 189.627L169.39 518.111Z" fill="url(#paint11_linear_1_2)"/>
</g>
<mask id="mask4_1_2" style="mask-type:alpha" maskUnits="userSpaceOnUse" x="119" y="113" width="1546" height="721">
<path d="M1531.69 620.256L1444.9 620.205C1435.88 620.092 1430.62 617.33 1428.61 612.119C1427.21 608.471 1427.36 604.221 1428.56 599.569L1463.54 446.611C1461.37 445.65 1459.32 443.446 1456.55 440.922L1274.13 258.066C1271.16 255.021 1268.91 252.297 1267.91 249.691C1265.09 242.396 1269.54 235.295 1276.55 230.197L1349.94 173.762C1351.83 172.437 1353.71 171.112 1355.79 170.309C1365.17 166.693 1374.56 170.855 1381.62 178.307L1497.67 294.576C1510.52 236.345 1522.34 178.515 1532.39 128.546C1533.51 122.13 1535.95 117.597 1541.68 115.387C1544.81 114.182 1549.9 113.416 1556.31 114.533L1649.41 124.723C1656.87 125.439 1661.4 127.881 1663.21 132.571C1666.23 140.388 1667.83 262.482 1554.61 603.637C1551.61 611.379 1548.13 616.313 1541.88 618.724C1539.27 619.729 1535.94 620.413 1531.69 620.256Z" fill="black"/>
<path d="M1079.98 719.511L1103.5 684.883C1106.6 679.932 1111.95 678.25 1116.51 679.473C1117.34 679.696 1118.06 680.333 1118.89 680.556C1129.32 686.464 1138.95 690.378 1148.08 692.825C1182.94 702.167 1208.62 687.693 1227.48 657.156C1213.5 657.859 1198.72 656.568 1185.44 653.009C1121.94 635.994 1077.92 569.481 1098.61 492.276C1112.07 442.052 1158.3 389.044 1245.88 412.51C1265.8 417.848 1283.89 426.7 1298.19 438.093C1300.66 433.861 1304.61 434.032 1308.35 435.033L1310.43 435.589C1310.43 435.589 1377.27 458.394 1386.71 461.367C1393.24 463.561 1395.94 470.069 1394.27 476.295C1373.87 549.126 1353.21 624.559 1324.49 683.595C1283.9 767.031 1211.16 784.467 1146.41 767.118C1122.34 760.667 1099.49 749.651 1079.83 735.04C1076.42 732.794 1076.48 729.251 1077.37 725.93C1078.04 723.44 1079.12 721.06 1079.98 719.511ZM1255.72 583.31L1258.13 582.621C1263.41 566.24 1268.72 548.088 1273.72 529.41C1277.29 509.456 1263.88 494.742 1246.03 489.96C1219.88 482.954 1199.69 500.23 1193.46 523.474C1189.12 539.662 1186.64 575.478 1223.17 585.265C1233.13 587.934 1247.63 586.927 1255.72 583.31Z" fill="black"/>
<path d="M970.163 603.065L966.271 575.125C965.586 571.245 967.498 567.989 970.334 566.538C970.85 566.274 971.497 566.267 972.013 566.004C979.897 564.245 986.48 561.851 992.152 558.948C1013.81 547.862 1020.1 529.021 1015.73 505.23C1009.06 511.899 1001.09 517.933 992.839 522.156C953.396 542.347 901.329 528.982 876.782 481.032C860.814 449.838 859.976 402.44 914.371 374.594C926.745 368.259 939.792 364.508 952.09 363.744C951.411 360.512 953.468 358.809 955.788 357.621L957.077 356.961C957.077 356.961 1000.81 338.154 1006.87 335.376C1011.13 333.523 1015.42 335.554 1017.4 339.421C1040.11 385.058 1063.87 432.109 1076.19 474.606C1093.6 534.67 1065.11 576.259 1024.89 596.847C1009.94 604.501 993.537 609.32 977.102 610.901C974.386 611.315 972.814 609.516 971.759 607.454C970.967 605.907 970.433 604.229 970.163 603.065ZM996.481 455.545L997.374 454.112C992.611 443.536 987.062 432.061 981.123 420.46C973.89 408.871 960.536 407.573 949.451 413.248C933.209 421.562 930.917 439.329 938.307 453.766C943.454 463.82 958.401 482.848 981.087 471.234C987.274 468.067 994.072 461.008 996.481 455.545Z" fill="black"/>
<path d="M956.414 642.302C956.414 719.403 878.256 762.5 822.203 762.5C757.861 762.5 701.414 715.844 701.414 646.256C701.414 564.806 762.203 522.5 831.677 522.5C918.914 522.5 956.414 590.902 956.414 642.302ZM831.677 686.981C859.703 686.981 872.335 664.049 872.335 641.512C872.335 633.999 870.756 595.647 830.493 595.647C797.335 595.647 787.861 623.719 787.861 641.512C787.861 668.793 809.177 686.981 831.677 686.981Z" fill="black"/>
<path d="M629.854 720.916L540.663 714.271C535.324 713.575 531.338 709.436 532.033 704.096L549.728 471.084C550.423 465.744 555.008 461.816 559.903 462.454L611.87 466.511C636.885 462.078 660.488 461.534 682.738 464.433C697.867 466.405 712.32 470.098 725.709 475.011C732.152 477.661 734.358 481.568 733.662 486.908C733.43 488.688 732.753 490.41 732.018 492.577L710.937 553.637C708.79 559.693 703.934 562.228 698.594 561.532C697.259 561.358 695.537 560.681 693.815 560.004C686.986 556.851 679.595 554.53 672.03 553.544C665.8 552.733 659.454 552.811 652.103 553.663L640.029 712.287L639.914 713.177C639.276 718.071 634.749 721.554 629.854 720.916Z" fill="black"/>
<path d="M481.585 777.785L356.804 832.327C349.447 836.039 339.93 832.422 336.236 825.1L335.62 823.88L120.632 335.306C116.63 327.375 120.295 317.871 128.879 313.54L243.542 263.337L245.994 262.1L419.828 185.868C427.186 182.156 437.316 185.464 441.318 193.396L441.934 194.616L493.987 313.021C497.681 320.343 494.324 330.457 486.353 334.479L485.127 335.097L333.98 401.412L355.233 449.629L468.067 406.473C476.653 403.671 485.249 406.988 488.944 414.309L489.867 416.14L528.098 525.445C531.179 533.076 527.514 542.58 519.543 546.602L518.317 547.22L414.987 586.346L489.832 756.018C493.221 764.259 489.556 773.763 481.585 777.785Z" fill="black"/>
</mask>
<g mask="url(#mask4_1_2)">
<path d="M189.099 564.099L202.238 1037.12H2035.18L1962.91 340.73L1476.76 -46.8813L31.4263 235.615L189.099 564.099Z" fill="url(#paint12_linear_1_2)"/>
<path d="M169.39 518.111L182.529 991.128H2015.47L1943.2 294.742L1457.05 -92.8691L11.7172 189.627L169.39 518.111Z" fill="url(#paint13_linear_1_2)"/>
<path d="M169.39 518.111L182.529 991.128H2015.47L1943.2 294.742L1457.05 -92.8691L11.7172 189.627L169.39 518.111Z" fill="url(#paint14_linear_1_2)"/>
</g>
<defs>
<linearGradient id="paint0_linear_1_2" x1="987.912" y1="435.395" x2="1036.59" y2="754.62" gradientUnits="userSpaceOnUse">
<stop stop-color="#04A5E5"/>
<stop offset="0.822888" stop-color="#40A02B"/>
</linearGradient>
<linearGradient id="paint1_linear_1_2" x1="1470.19" y1="445.845" x2="1693.56" y2="156.779" gradientUnits="userSpaceOnUse">
<stop stop-color="#04A5E5" stop-opacity="0"/>
<stop offset="0.475824" stop-color="#DF8E1D"/>
</linearGradient>
<linearGradient id="paint2_linear_1_2" x1="714.673" y1="840.025" x2="550.431" y2="958.28" gradientUnits="userSpaceOnUse">
<stop stop-color="#04A5E5" stop-opacity="0"/>
<stop offset="0.822888" stop-color="#D20F39"/>
</linearGradient>
<linearGradient id="paint3_linear_1_2" x1="987.912" y1="435.395" x2="1036.59" y2="754.62" gradientUnits="userSpaceOnUse">
<stop stop-color="#04A5E5"/>
<stop offset="0.822888" stop-color="#40A02B"/>
</linearGradient>
<linearGradient id="paint4_linear_1_2" x1="1470.19" y1="445.845" x2="1693.56" y2="156.779" gradientUnits="userSpaceOnUse">
<stop stop-color="#04A5E5" stop-opacity="0"/>
<stop offset="0.475824" stop-color="#DF8E1D"/>
</linearGradient>
<linearGradient id="paint5_linear_1_2" x1="714.673" y1="840.025" x2="550.431" y2="958.28" gradientUnits="userSpaceOnUse">
<stop stop-color="#04A5E5" stop-opacity="0"/>
<stop offset="0.822888" stop-color="#D20F39"/>
</linearGradient>
<linearGradient id="paint6_linear_1_2" x1="987.912" y1="435.395" x2="1036.59" y2="754.62" gradientUnits="userSpaceOnUse">
<stop stop-color="#04A5E5"/>
<stop offset="0.822888" stop-color="#40A02B"/>
</linearGradient>
<linearGradient id="paint7_linear_1_2" x1="1470.19" y1="445.845" x2="1693.56" y2="156.779" gradientUnits="userSpaceOnUse">
<stop stop-color="#04A5E5" stop-opacity="0"/>
<stop offset="0.475824" stop-color="#DF8E1D"/>
</linearGradient>
<linearGradient id="paint8_linear_1_2" x1="714.673" y1="840.025" x2="550.431" y2="958.28" gradientUnits="userSpaceOnUse">
<stop stop-color="#04A5E5" stop-opacity="0"/>
<stop offset="0.822888" stop-color="#D20F39"/>
</linearGradient>
<linearGradient id="paint9_linear_1_2" x1="987.912" y1="435.395" x2="1036.59" y2="754.62" gradientUnits="userSpaceOnUse">
<stop stop-color="#04A5E5"/>
<stop offset="0.822888" stop-color="#40A02B"/>
</linearGradient>
<linearGradient id="paint10_linear_1_2" x1="1470.19" y1="445.845" x2="1693.56" y2="156.779" gradientUnits="userSpaceOnUse">
<stop stop-color="#04A5E5" stop-opacity="0"/>
<stop offset="0.475824" stop-color="#DF8E1D"/>
</linearGradient>
<linearGradient id="paint11_linear_1_2" x1="714.673" y1="840.025" x2="550.431" y2="958.28" gradientUnits="userSpaceOnUse">
<stop stop-color="#04A5E5" stop-opacity="0"/>
<stop offset="0.822888" stop-color="#D20F39"/>
</linearGradient>
<linearGradient id="paint12_linear_1_2" x1="987.912" y1="435.395" x2="1036.59" y2="754.62" gradientUnits="userSpaceOnUse">
<stop stop-color="#04A5E5"/>
<stop offset="0.822888" stop-color="#40A02B"/>
</linearGradient>
<linearGradient id="paint13_linear_1_2" x1="1470.19" y1="445.845" x2="1693.56" y2="156.779" gradientUnits="userSpaceOnUse">
<stop stop-color="#04A5E5" stop-opacity="0"/>
<stop offset="0.475824" stop-color="#DF8E1D"/>
</linearGradient>
<linearGradient id="paint14_linear_1_2" x1="714.673" y1="840.025" x2="550.431" y2="958.28" gradientUnits="userSpaceOnUse">
<stop stop-color="#04A5E5" stop-opacity="0"/>
<stop offset="0.822888" stop-color="#D20F39"/>
</linearGradient>
</defs>
</svg>
